<?xml version="1.0" encoding="UTF-8"?><svg xmlns="http://www.w3.org/2000/svg" viewBox="0 0 414.08 198.41"><defs><style>.cls-3{fill:#0099cd}</style></defs><g style="opacity:.5" id="clearspace"><path style="fill:none" d="M0 0h414.08v198.41H0z"/></g><g id="logo"><path class="cls-3" d="M181.63 58.17h-24.51v13.25h23.14v17.46h-23.14v13.67h24.51v17.46h-45.12v-79.3h45.12v17.46Zm50.76 2.84c-2.25-1.82-4.49-3.17-6.73-4.05-2.25-.88-4.42-1.32-6.52-1.32-2.67 0-4.84.63-6.52 1.89-1.68 1.26-2.52 2.91-2.52 4.94 0 1.4.42 2.56 1.26 3.47.84.91 1.95 1.7 3.31 2.37 1.37.67 2.91 1.25 4.63 1.74 1.72.49 3.42 1.02 5.1 1.58 6.73 2.25 11.66 5.24 14.78 8.99 3.12 3.75 4.68 8.64 4.68 14.67 0 4.07-.68 7.75-2.05 11.04-1.37 3.3-3.37 6.12-6 8.47-2.63 2.35-5.86 4.17-9.68 5.47-3.82 1.3-8.15 1.95-12.99 1.95-10.03 0-19.32-2.98-27.87-8.94l8.84-16.62c3.08 2.74 6.14 4.77 9.15 6.1 3.01 1.33 6 2 8.94 2 3.37 0 5.87-.77 7.52-2.31 1.65-1.54 2.47-3.29 2.47-5.26 0-1.19-.21-2.23-.63-3.1-.42-.88-1.12-1.68-2.1-2.42s-2.26-1.42-3.84-2.05c-1.58-.63-3.49-1.33-5.73-2.1-2.67-.84-5.28-1.77-7.84-2.79-2.56-1.02-4.84-2.37-6.84-4.05-2-1.68-3.61-3.8-4.84-6.36-1.23-2.56-1.84-5.8-1.84-9.73s.65-7.48 1.95-10.68c1.3-3.19 3.12-5.92 5.47-8.2 2.35-2.28 5.22-4.05 8.62-5.31 3.4-1.26 7.21-1.89 11.41-1.89 3.93 0 8.03.54 12.31 1.63 4.28 1.09 8.38 2.68 12.31 4.79l-8.2 16.09Zm130.1-20.3h-22.51l-28.27 74.27-21.06-27.46c5.68-1.33 9.97-3.87 12.89-7.63 2.91-3.75 4.37-8.64 4.37-14.67 0-3.37-.54-6.52-1.63-9.47-1.09-2.95-2.7-5.54-4.84-7.78-2.14-2.24-4.86-4.01-8.15-5.31-3.3-1.3-7.15-1.95-11.57-1.95h-32.08v79.31h20.62v-30.5l19.67 30.5h41.86l4.73-13.78h29.45l4.73 13.78h21.98l-30.19-79.31ZM283.5 73.63c-2.17 1.68-5.3 2.52-9.36 2.52h-3.89V56.59h3.89c4.07 0 7.19.84 9.36 2.52 2.17 1.68 3.26 4.1 3.26 7.26s-1.09 5.58-3.26 7.26Zm58.48 16.93 9.26-26.4 9.26 26.4h-18.51Z"/><circle cx="111.29" cy="80.24" r="12.4" style="fill:#f08621"/><path d="M45.8 139.75c-1.35 0-2.72-.36-3.96-1.1-3.65-2.19-4.83-6.93-2.64-10.58l21.09-35.12-35.12-21.11c-3.65-2.19-4.83-6.93-2.64-10.58 2.19-3.65 6.93-4.83 10.58-2.64L74.84 83.7c3.65 2.19 4.83 6.93 2.64 10.58L52.42 136c-1.45 2.41-4 3.74-6.62 3.74Z" style="fill:#c1d82f"/><path class="cls-3" d="M84.17 75.9c-1.35 0-2.72-.36-3.96-1.1L49.15 56.14c-3.65-2.19-4.83-6.93-2.64-10.58 2.19-3.65 6.93-4.83 10.58-2.64l24.45 14.69 19.49-32.45c2.19-3.65 6.93-4.83 10.58-2.64 3.65 2.19 4.83 6.93 2.64 10.58L90.79 72.16c-1.45 2.41-4 3.74-6.62 3.74Z"/><path d="M73.21 144.27c-1.35 0-2.72-.36-3.96-1.1-3.65-2.19-4.83-6.93-2.64-10.58l19.78-32.94c1.05-1.75 2.76-3.02 4.74-3.51 1.98-.49 4.08-.18 5.84.87l20.91 12.56c3.65 2.19 4.83 6.93 2.64 10.58s-6.93 4.83-10.58 2.64l-14.29-8.59-15.81 26.33c-1.45 2.41-4 3.74-6.62 3.74Z" style="fill:#15a64b"/><path d="M136.72 132.14h13.78v4.23h-8.93v2.93h8.74v4.23h-8.74v3.18h8.93v4.23h-13.78v-18.8Zm25.81 10.94c0-1.66-.87-2.25-2.23-2.25s-2.14.71-2.65 1.33v8.79h-4.34v-13.61h4.34V139c.82-.96 2.42-2 4.71-2 3.1 0 4.51 1.8 4.51 4.31v9.64h-4.34v-7.86Zm13.69-6.09c4.03 0 6.96 2.96 6.96 7.58v.93h-9.7c.25 1.27 1.44 2.42 3.47 2.42 1.21 0 2.56-.48 3.33-1.16l1.83 2.71c-1.35 1.21-3.61 1.8-5.69 1.8-4.2 0-7.44-2.73-7.44-7.16 0-3.95 2.99-7.13 7.24-7.13Zm-2.79 5.69h5.61c-.11-.96-.82-2.34-2.82-2.34-1.89 0-2.62 1.35-2.79 2.34Zm11.8-5.35h4.34v1.72c.9-1.1 2.62-2.06 4.26-2.06v4.2c-.25-.08-.62-.14-1.07-.14-1.13 0-2.62.48-3.18 1.27v8.62h-4.34v-13.61Zm12 14c1.04 1.13 2.56 1.58 4.14 1.58 1.44 0 3.47-.59 3.47-3.13v-1.04c-1.13 1.32-2.48 1.97-4.03 1.97-3.33 0-6-2.28-6-6.88s2.59-6.85 6-6.85c1.52 0 2.93.59 4.03 1.95v-1.61h4.31v12.4c0 5.55-4.4 6.74-7.78 6.74-2.34 0-4.28-.59-6.03-2.03l1.89-3.1Zm7.61-9.3c-.54-.73-1.69-1.21-2.59-1.21-1.72 0-2.99 1.04-2.99 3.02s1.27 3.04 2.99 3.04c.9 0 2.06-.48 2.59-1.21v-3.64Zm8.83 10.6c.99 0 1.61-.2 1.83-.76l.31-.73-5.41-13.81h4.57l3.07 8.62 3.1-8.62h4.59l-6.14 15.56c-1.1 2.88-3.16 3.52-5.75 3.58-.39 0-1.41-.08-1.86-.23l.62-3.86c.31.17.73.25 1.07.25Zm19.64-7.98c1.35 1.35 3.44 2.48 6 2.48 1.66 0 2.68-.65 2.68-1.55 0-.99-1.41-1.3-3.21-1.66-3.1-.62-7.44-1.47-7.44-6.09 0-3.16 2.68-5.97 7.5-5.97 3.02 0 5.64.9 7.64 2.62l-2.65 3.47c-1.58-1.3-3.64-1.95-5.5-1.95-1.41 0-2.03.56-2.03 1.35 0 .9 1.44 1.21 3.24 1.63 3.1.65 7.38 1.58 7.38 6 0 3.78-2.79 6.29-7.83 6.29-3.8 0-6.45-1.18-8.34-2.99l2.56-3.64Zm16.46 2.62v-6.17h-2.25v-3.78h2.25v-3.72h4.31v3.72h2.76v3.78h-2.76v4.96c0 .79.45 1.38 1.21 1.38.48 0 .96-.17 1.1-.34l.85 3.27c-.54.51-1.61.9-3.21.9-2.76 0-4.26-1.38-4.26-4Zm8.25-3.15c0-3.83 2.79-7.13 7.41-7.13s7.44 3.3 7.44 7.13-2.76 7.16-7.44 7.16-7.41-3.33-7.41-7.16Zm10.4 0c0-1.8-1.07-3.3-2.99-3.3s-2.93 1.49-2.93 3.3 1.04 3.33 2.93 3.33 2.99-1.49 2.99-3.33Zm6.57-6.79h4.34v1.72c.9-1.1 2.62-2.06 4.26-2.06v4.2c-.25-.08-.62-.14-1.07-.14-1.13 0-2.62.48-3.18 1.27v8.62H275v-13.61Zm18.24 12.26c-.85 1.01-2.48 1.69-4.23 1.69-2.09 0-4.68-1.41-4.68-4.48 0-3.3 2.59-4.28 4.68-4.28 1.8 0 3.41.56 4.23 1.58v-1.72c0-1.18-1.01-1.97-2.76-1.97-1.35 0-2.76.51-3.86 1.44l-1.55-2.73c1.75-1.49 4.09-2.11 6.17-2.11 3.27 0 6.34 1.21 6.34 5.44v8.51h-4.34v-1.35Zm0-3.35c-.45-.62-1.47-.96-2.42-.96-1.16 0-2.17.51-2.17 1.58s1.01 1.58 2.17 1.58c.96 0 1.97-.34 2.42-.99v-1.21Zm8.86 5.09c1.04 1.13 2.56 1.58 4.14 1.58 1.44 0 3.47-.59 3.47-3.13v-1.04c-1.13 1.32-2.48 1.97-4.03 1.97-3.33 0-6-2.28-6-6.88s2.59-6.85 6-6.85c1.52 0 2.93.59 4.03 1.95v-1.61h4.31v12.4c0 5.55-4.4 6.74-7.78 6.74-2.34 0-4.28-.59-6.03-2.03l1.89-3.1Zm7.61-9.3c-.54-.73-1.69-1.21-2.59-1.21-1.72 0-2.99 1.04-2.99 3.02s1.27 3.04 2.99 3.04c.9 0 2.06-.48 2.59-1.21v-3.64Zm13.67-5.04c4.03 0 6.96 2.96 6.96 7.58v.93h-9.7c.25 1.27 1.44 2.42 3.47 2.42 1.21 0 2.56-.48 3.33-1.16l1.83 2.71c-1.35 1.21-3.61 1.8-5.69 1.8-4.2 0-7.44-2.73-7.44-7.16 0-3.95 2.99-7.13 7.24-7.13Zm-2.79 5.69h5.61c-.11-.96-.82-2.34-2.82-2.34-1.89 0-2.62 1.35-2.79 2.34Zm-176.53 28.01h-2.48V177h-4.85v-18.8h9.41c4.17 0 6.54 2.76 6.54 6.26 0 3.27-2 5.02-3.75 5.64l3.83 6.9h-5.55l-3.16-6.31Zm1.35-8.26h-3.83v4.03h3.83c1.27 0 2.34-.71 2.34-2.03s-1.07-2-2.34-2Zm15.76.62c4.03 0 6.96 2.96 6.96 7.58v.93h-9.69c.25 1.27 1.44 2.42 3.47 2.42 1.21 0 2.56-.48 3.33-1.16l1.83 2.71c-1.35 1.21-3.61 1.8-5.69 1.8-4.2 0-7.44-2.73-7.44-7.16 0-3.95 2.99-7.13 7.24-7.13Zm-2.79 5.69h5.61c-.11-.96-.82-2.34-2.82-2.34-1.89 0-2.62 1.35-2.79 2.34Zm12.4 3.53c1.01.9 3.18 1.8 4.79 1.8 1.3 0 1.83-.42 1.83-1.04s-1.04-.85-2.34-1.07c-2.31-.37-5.58-.9-5.58-4.42 0-2.4 2.06-4.48 5.83-4.48 2.28 0 4.23.73 5.69 1.8l-1.66 2.88c-.82-.79-2.37-1.49-4-1.49-1.01 0-1.72.42-1.72.96 0 .59.73.71 2.17.96 2.31.42 5.75.99 5.75 4.68 0 2.59-2.28 4.51-6.2 4.51-2.42 0-4.93-.82-6.37-2.09l1.8-2.99Zm19.17-9.22c4.03 0 6.96 2.96 6.96 7.58v.93h-9.69c.25 1.27 1.44 2.42 3.47 2.42 1.21 0 2.56-.48 3.33-1.16l1.83 2.71c-1.35 1.21-3.61 1.8-5.69 1.8-4.2 0-7.44-2.73-7.44-7.16 0-3.95 2.99-7.13 7.24-7.13Zm-2.79 5.69h5.61c-.11-.96-.82-2.34-2.82-2.34-1.89 0-2.62 1.35-2.79 2.34Zm19.84 6.91c-.85 1.01-2.48 1.69-4.23 1.69-2.09 0-4.68-1.41-4.68-4.48 0-3.3 2.59-4.28 4.68-4.28 1.8 0 3.41.56 4.23 1.58v-1.72c0-1.18-1.01-1.97-2.76-1.97-1.35 0-2.76.51-3.86 1.44l-1.55-2.73c1.75-1.49 4.09-2.11 6.17-2.11 3.27 0 6.34 1.21 6.34 5.44v8.51h-4.34v-1.35Zm0-3.35c-.45-.62-1.47-.96-2.42-.96-1.16 0-2.17.51-2.17 1.58s1.01 1.58 2.17 1.58c.96 0 1.97-.34 2.42-.99v-1.21Zm7.28-8.91h4.34v1.72c.9-1.1 2.62-2.06 4.26-2.06v4.2c-.25-.08-.62-.14-1.07-.14-1.13 0-2.62.48-3.18 1.27V177h-4.34v-13.61Zm16.94-.34c2.93 0 4.76 1.3 5.58 2.51l-2.82 2.62c-.54-.79-1.41-1.3-2.56-1.3-1.8 0-3.18 1.24-3.18 3.3s1.38 3.33 3.18 3.33c1.16 0 2.03-.56 2.56-1.33l2.82 2.65c-.82 1.18-2.65 2.51-5.58 2.51-4.26 0-7.44-2.88-7.44-7.16s3.18-7.13 7.44-7.13Zm16.5 6.03c0-1.66-.87-2.2-2.25-2.2-1.27 0-2.11.7-2.62 1.32v8.79h-4.34v-18.8h4.34v6.85c.82-.96 2.42-2 4.71-2 3.1 0 4.51 1.75 4.51 4.26v9.69h-4.34v-7.92Zm24.4 5.21h-7.41l-.93 2.71h-5.5l7.07-18.8h6.09l7.1 18.8h-5.5l-.93-2.71Zm-6.12-4.23h4.79l-2.4-7.07-2.4 7.07Zm13.8-11.86h4.34V177h-4.34v-18.8Zm7.27 0h4.34V177h-4.34v-18.8Zm6.95 1.47c0-1.38 1.1-2.48 2.48-2.48s2.48 1.1 2.48 2.48-1.1 2.51-2.48 2.51-2.48-1.13-2.48-2.51Zm.31 3.72h4.34V177h-4.34v-13.61Zm15.34 12.26c-.85 1.01-2.48 1.69-4.23 1.69-2.09 0-4.68-1.41-4.68-4.48 0-3.3 2.59-4.28 4.68-4.28 1.8 0 3.41.56 4.23 1.58v-1.72c0-1.18-1.01-1.97-2.76-1.97-1.35 0-2.76.51-3.86 1.44l-1.55-2.73c1.75-1.49 4.09-2.11 6.17-2.11 3.27 0 6.34 1.21 6.34 5.44v8.51h-4.34v-1.35Zm0-3.35c-.45-.62-1.47-.96-2.42-.96-1.16 0-2.17.51-2.17 1.58s1.01 1.58 2.17 1.58c.96 0 1.97-.34 2.42-.99v-1.21Zm16.49-3.16c0-1.66-.87-2.25-2.23-2.25s-2.14.7-2.65 1.32V177h-4.34v-13.61h4.34v1.66c.82-.96 2.42-2 4.71-2 3.1 0 4.51 1.8 4.51 4.31V177h-4.34v-7.86Zm13.88-6.09c2.93 0 4.76 1.3 5.58 2.51l-2.82 2.62c-.54-.79-1.41-1.3-2.56-1.3-1.8 0-3.18 1.24-3.18 3.3s1.38 3.33 3.18 3.33c1.16 0 2.03-.56 2.56-1.33l2.82 2.65c-.82 1.18-2.65 2.51-5.58 2.51-4.26 0-7.44-2.88-7.44-7.16s3.18-7.13 7.44-7.13Zm13.38 0c4.03 0 6.96 2.96 6.96 7.58v.93h-9.7c.25 1.27 1.44 2.42 3.47 2.42 1.21 0 2.56-.48 3.33-1.16l1.83 2.71c-1.35 1.21-3.61 1.8-5.69 1.8-4.2 0-7.44-2.73-7.44-7.16 0-3.95 2.99-7.13 7.24-7.13Zm-2.79 5.69h5.61c-.11-.96-.82-2.34-2.82-2.34-1.89 0-2.62 1.35-2.79 2.34Z" style="fill:#666"/></g></svg>